<?xml version="1.0" encoding="UTF-8" standalone="no"?><svg xmlns="http://www.w3.org/2000/svg" xmlns:xlink="http://www.w3.org/1999/xlink" contentScriptType="application/ecmascript" contentStyleType="text/css" height="67px" preserveAspectRatio="none" style="width:132px;height:67px;" version="1.1" viewBox="0 0 132 67" width="132px" zoomAndPan="magnify"><defs><filter height="300%" id="f1s7p3de01klks" width="300%" x="-1" y="-1"><feGaussianBlur result="blurOut" stdDeviation="2.0"/><feColorMatrix in="blurOut" result="blurOut2" type="matrix" values="0 0 0 0 0 0 0 0 0 0 0 0 0 0 0 0 0 0 .4 0"/><feOffset dx="4.0" dy="4.0" in="blurOut2" result="blurOut3"/><feBlend in="SourceGraphic" in2="blurOut3" mode="normal"/></filter></defs><g><!--class A--><rect fill="#FEFECE" filter="url(#f1s7p3de01klks)" height="48" id="A" style="stroke: #A80036; stroke-width: 1.5;" width="40" x="6" y="8"/><ellipse cx="21" cy="24" fill="#ADD1B2" rx="11" ry="11" style="stroke: #A80036; stroke-width: 1.0;"/><path d="M23.9688,29.6406 Q23.3906,29.9375 22.75,30.0859 Q22.1094,30.2344 21.4063,30.2344 Q18.9063,30.2344 17.5859,28.5859 Q16.2656,26.9375 16.2656,23.8125 Q16.2656,20.6875 17.5859,19.0313 Q18.9063,17.375 21.4063,17.375 Q22.1094,17.375 22.7578,17.5313 Q23.4063,17.6875 23.9688,17.9844 L23.9688,20.7031 Q23.3438,20.125 22.75,19.8516 Q22.1563,19.5781 21.5313,19.5781 Q20.1875,19.5781 19.5,20.6484 Q18.8125,21.7188 18.8125,23.8125 Q18.8125,25.9063 19.5,26.9766 Q20.1875,28.0469 21.5313,28.0469 Q22.1563,28.0469 22.75,27.7734 Q23.3438,27.5 23.9688,26.9219 L23.9688,29.6406 Z "/><text fill="#000000" font-family="sans-serif" font-size="12" lengthAdjust="spacingAndGlyphs" textLength="8" x="35" y="28.1543">A</text><line style="stroke: #A80036; stroke-width: 1.5;" x1="7" x2="45" y1="40" y2="40"/><line style="stroke: #A80036; stroke-width: 1.5;" x1="7" x2="45" y1="48" y2="48"/><!--class B--><rect fill="#FEFECE" filter="url(#f1s7p3de01klks)" height="48" id="B" style="stroke: #A80036; stroke-width: 1.5;" width="40" x="81" y="8"/><ellipse cx="96" cy="24" fill="#ADD1B2" rx="11" ry="11" style="stroke: #A80036; stroke-width: 1.0;"/><path d="M98.9688,29.6406 Q98.3906,29.9375 97.75,30.0859 Q97.1094,30.2344 96.4063,30.2344 Q93.9063,30.2344 92.5859,28.5859 Q91.2656,26.9375 91.2656,23.8125 Q91.2656,20.6875 92.5859,19.0313 Q93.9063,17.375 96.4063,17.375 Q97.1094,17.375 97.7578,17.5313 Q98.4063,17.6875 98.9688,17.9844 L98.9688,20.7031 Q98.3438,20.125 97.75,19.8516 Q97.1563,19.5781 96.5313,19.5781 Q95.1875,19.5781 94.5,20.6484 Q93.8125,21.7188 93.8125,23.8125 Q93.8125,25.9063 94.5,26.9766 Q95.1875,28.0469 96.5313,28.0469 Q97.1563,28.0469 97.75,27.7734 Q98.3438,27.5 98.9688,26.9219 L98.9688,29.6406 Z "/><text fill="#000000" font-family="sans-serif" font-size="12" lengthAdjust="spacingAndGlyphs" textLength="8" x="110" y="28.1543">B</text><line style="stroke: #A80036; stroke-width: 1.5;" x1="82" x2="120" y1="40" y2="40"/><line style="stroke: #A80036; stroke-width: 1.5;" x1="82" x2="120" y1="48" y2="48"/><!--link A to B--><path d="M46.2148,32 C56.0557,32 65.8966,32 75.7374,32 " fill="none" id="A-B" style="stroke: #A80036; stroke-width: 1.0;"/><polygon fill="#A80036" points="80.8836,32,71.8836,28,75.8836,32,71.8836,36,80.8836,32" style="stroke: #A80036; stroke-width: 1.0;"/><!--
@startuml
class A
class B
A -> B
@enduml

PlantUML version 1.2018.01(Sun Jan 28 19:08:22 CET 2018)
(APACHE source distribution)
Java Runtime: OpenJDK Runtime Environment
JVM: OpenJDK 64-Bit Server VM
Java Version: 1.8.0_172-b11
Operating System: Linux
OS Version: 4.17.11-arch1
Default Encoding: UTF-8
Language: de
Country: DE
--></g></svg>