<?xml version="1.0" encoding="utf-8"?>
<!-- Generator: Adobe Illustrator 16.0.0, SVG Export Plug-In . SVG Version: 6.00 Build 0)  -->
<!DOCTYPE svg PUBLIC "-//W3C//DTD SVG 1.1//EN" "http://www.w3.org/Graphics/SVG/1.1/DTD/svg11.dtd">
<svg version="1.1" xmlns="http://www.w3.org/2000/svg" xmlns:xlink="http://www.w3.org/1999/xlink" x="0px" y="0px" width="370px"
	 height="300px" viewBox="0 0 370 300" enable-background="new 0 0 370 300" xml:space="preserve">
<g id="Hilfslinien_f체r_Zeichenfl채che_1_">
</g>
<g id="Hilfslinien_f체r_Zeichenfl채che">
</g>
<g id="Ebene_1">
	<g>
		<g>
			<g>
				<path fill="#CF081C" d="M90.086,274.278c-12.852-5.938-24.618-13.746-35.028-23.245l33.289-33.29
					c5.975,5.196,12.603,9.584,19.748,13.073L90.086,274.278z"/>
			</g>
			<g>
				<path fill="#FFFFFF" d="M88.455,220.463c5.251,4.384,10.972,8.172,17.079,11.308l-16.493,39.805
					c-11.3-5.431-21.726-12.348-31.077-20.62L88.455,220.463 M88.266,214.996l-36.092,36.092
					c11.58,10.889,24.789,19.564,38.969,25.865l19.527-47.127C102.582,226.084,95.012,221.117,88.266,214.996L88.266,214.996z"/>
			</g>
		</g>
		<g>
			<g>
				<path fill="#F3991D" d="M18.495,196.534c-4.869-13.283-7.639-27.171-8.242-41.339h47.059c0.525,7.955,2.093,15.782,4.67,23.32
					L18.495,196.534z"/>
			</g>
			<g>
				<path fill="#FFFFFF" d="M55.458,157.195c0.593,6.864,1.946,13.625,4.042,20.184l-39.829,16.503
					c-4.135-11.837-6.588-24.143-7.314-36.687H55.458 M59.203,153.195H8.182c0.43,15.48,3.432,31.025,9.168,45.979l47.15-19.537
					C61.346,171.012,59.604,162.098,59.203,153.195L59.203,153.195z"/>
			</g>
		</g>
		<g>
			<g>
				<path fill="#0F802E" d="M46.555,242.568c-6.255-6.798-11.842-14.25-16.623-22.178c-2.45-4.062-4.736-8.353-6.81-12.783
					l43.483-18.02c1.122,2.263,2.319,4.451,3.57,6.525c2.801,4.646,6.046,9.068,9.662,13.172L46.555,242.568z"/>
			</g>
			<g>
				<path fill="#FFFFFF" d="M65.661,192.145c0.896,1.722,1.833,3.395,2.802,5.001c2.542,4.216,5.44,8.252,8.646,12.04
					l-30.483,30.482c-5.6-6.277-10.629-13.093-14.982-20.311c-2.063-3.422-4.011-7.011-5.81-10.709L65.661,192.145 M67.584,187.018
					l-47.146,19.537c2.273,5.045,4.854,10.016,7.781,14.869c5.32,8.82,11.473,16.836,18.287,24.021l36.088-36.088
					c-3.965-4.312-7.566-9.07-10.705-14.277C70.297,192.441,68.871,189.748,67.584,187.018L67.584,187.018z"/>
			</g>
		</g>
		<g>
			<g>
				<path fill="#FFFFFF" d="M263.678,185.973c5.273,0,9.162,0.959,11.674,2.879c2.506,1.916,4.664,5.742,6.473,11.473l12.02,38.137
					c0.258,0.787,0.713,2.426,1.357,4.924c0.646,2.494,1.486,5.848,2.521,10.053c0.828-4.021,1.514-7.107,2.057-9.254
					c0.541-2.152,1.07-3.99,1.588-5.516l12.408-39.037c1.551-4.992,3.646-8.469,6.283-10.434c2.635-1.963,6.459-2.949,11.475-2.949
					h13.496c5.48,0,9.656,1.217,12.523,3.643c2.867,2.428,4.305,5.951,4.305,10.572v75.371c0,4.992-1.332,8.771-3.994,11.338
					c-2.664,2.566-6.582,3.848-11.75,3.848c-5.48,0-9.705-1.271-12.678-3.814c-2.973-2.541-4.459-6.193-4.459-10.955v-36.887
					c0-0.23,0.062-2.324,0.193-6.275c0.127-3.953,0.221-7.824,0.271-11.615c-0.982,4.07-1.863,7.605-2.637,10.609
					c-0.775,3.006-1.475,5.525-2.094,7.557l-11.943,42.297c-0.93,3.238-2.574,5.559-4.926,6.969
					c-2.354,1.408-5.777,2.115-10.273,2.115c-4.498,0-7.859-0.67-10.082-2.012c-2.225-1.34-3.801-3.65-4.729-6.934l-12.023-41.256
					c-0.619-2.033-1.256-4.414-1.9-7.143c-0.646-2.727-1.562-6.793-2.752-12.203c0.104,1.48,0.18,3.006,0.232,4.576
					c0.051,1.574,0.076,3.654,0.076,6.24c0,1.666-0.025,3.398-0.076,5.203c-0.053,1.801-0.076,2.748-0.076,2.84v35.918
					c0,4.762-1.488,8.414-4.459,10.955c-2.975,2.543-7.201,3.814-12.682,3.814c-5.17,0-9.086-1.281-11.748-3.848
					c-2.664-2.566-3.994-6.346-3.994-11.338v-75.646c0-4.621,1.434-8.148,4.307-10.574c2.867-2.428,7.043-3.641,12.521-3.641
					H263.678"/>
			</g>
		</g>
		<g>
			<g>
				<g>
					<path fill="#2960A7" d="M148.795,287.146c-0.126-0.024-0.255-0.037-0.385-0.037l0,0c-16.156,0-32.023-2.782-47.224-8.272
						l18.012-43.47c3.643,1.217,7.414,2.217,11.248,2.98l18.89,47.729c0.144,0.358,0.292,0.712,0.446,1.061
						C149.447,287.142,149.118,287.145,148.795,287.146z"/>
				</g>
				<g>
					<path fill="#FFFFFF" d="M120.34,237.837c2.823,0.881,5.714,1.634,8.645,2.252l17.814,45.012
						c-14.652-0.168-29.077-2.67-42.957-7.447L120.34,237.837 M118.072,232.861l-19.529,47.131c15.882,6,32.786,9.117,49.835,9.117
						c0.012,0,0.021,0,0.032,0v0.039c1.533-0.004,3.059-0.039,4.58-0.092c-0.666-1.156-1.266-2.396-1.795-3.717l-19.293-48.748
						C127.203,235.713,122.576,234.475,118.072,232.861L118.072,232.861z"/>
				</g>
			</g>
		</g>
		<g>
			<g>
				<path fill="#FFFFFF" d="M231,182.156C231.133,182.039,230.867,182.268,231,182.156c1.484-1.258,3.156-2.338,4.998-3.227
					c3.994-1.928,8.785-2.957,14.186-2.957h13.494c7.6,0,13.404,1.613,17.748,4.934c0.904,0.691,1.76,1.488,2.578,2.379
					c2.781-11.033,4.266-22.576,4.246-34.465C288.113,71.578,225.166,8.848,147.922,8.98C72.057,9.113,10.195,69.846,8.143,145.195
					h51.029c2.031-47.264,41.07-85.131,88.84-85.213c49.119-0.086,89.152,39.807,89.238,88.928
					C237.271,160.723,235.176,171.828,231,182.156z"/>
			</g>
		</g>
		<g>
			<path fill="#FFFFFF" d="M207.414,212.391c4.701,0,8.566,1.225,11.592,3.674c3.025,2.451,4.537,5.57,4.537,9.359
				c0,1.02-0.115,2.07-0.348,3.158c-0.234,1.086-0.58,2.275-1.049,3.57l-18.301,49.508c-1.189,3.188-2.998,5.521-5.428,7
				c-2.432,1.479-5.637,2.219-9.617,2.219h-13.027c-4.035,0-7.268-0.727-9.693-2.182c-2.432-1.457-4.293-3.803-5.586-7.037
				l-19.541-49.371c-0.414-1.016-0.725-2.08-0.932-3.188c-0.207-1.111-0.311-2.242-0.311-3.398c0-3.836,1.537-6.967,4.615-9.396
				c3.074-2.426,7.043-3.639,11.904-3.639c3.721,0,6.746,0.938,9.072,2.809s4.16,4.863,5.508,8.979l11.479,35.084l10.777-34.943
				c1.291-4.068,3.127-7.121,5.506-9.156C200.949,213.408,203.896,212.391,207.414,212.391"/>
		</g>
	</g>
</g>
</svg>
